<mxfile host="app.diagrams.net" agent="Mozilla/5.0 (Windows NT 10.0; Win64; x64) AppleWebKit/537.36 (KHTML, like Gecko) Chrome/131.0.0.0 Safari/537.36" version="26.2.14">
  <diagram name="Page-1" id="ZfLBY-ygJTPExCbfHuxq">
    <mxGraphModel dx="1389" dy="591" grid="1" gridSize="10" guides="1" tooltips="1" connect="1" arrows="1" fold="1" page="1" pageScale="1" pageWidth="850" pageHeight="1100" math="0" shadow="0">
      <root>
        <mxCell id="0" />
        <mxCell id="1" parent="0" />
        <mxCell id="fj3UINoSOP0BKlGeXnyi-1" value="User App" style="shape=umlLifeline;perimeter=lifelinePerimeter;whiteSpace=wrap;container=1;dropTarget=0;collapsible=0;recursiveResize=0;outlineConnect=0;portConstraint=eastwest;newEdgeStyle={&quot;edgeStyle&quot;:&quot;elbowEdgeStyle&quot;,&quot;elbow&quot;:&quot;vertical&quot;,&quot;curved&quot;:0,&quot;rounded&quot;:0};size=65;" vertex="1" parent="1">
          <mxGeometry x="20" y="20" width="150" height="368" as="geometry" />
        </mxCell>
        <mxCell id="fj3UINoSOP0BKlGeXnyi-2" value="Web Server (API)" style="shape=umlLifeline;perimeter=lifelinePerimeter;whiteSpace=wrap;container=1;dropTarget=0;collapsible=0;recursiveResize=0;outlineConnect=0;portConstraint=eastwest;newEdgeStyle={&quot;edgeStyle&quot;:&quot;elbowEdgeStyle&quot;,&quot;elbow&quot;:&quot;vertical&quot;,&quot;curved&quot;:0,&quot;rounded&quot;:0};size=65;" vertex="1" parent="1">
          <mxGeometry x="460" y="20" width="150" height="368" as="geometry" />
        </mxCell>
        <mxCell id="fj3UINoSOP0BKlGeXnyi-3" value="Database" style="shape=umlLifeline;perimeter=lifelinePerimeter;whiteSpace=wrap;container=1;dropTarget=0;collapsible=0;recursiveResize=0;outlineConnect=0;portConstraint=eastwest;newEdgeStyle={&quot;edgeStyle&quot;:&quot;elbowEdgeStyle&quot;,&quot;elbow&quot;:&quot;vertical&quot;,&quot;curved&quot;:0,&quot;rounded&quot;:0};size=65;" vertex="1" parent="1">
          <mxGeometry x="741" y="20" width="150" height="368" as="geometry" />
        </mxCell>
        <mxCell id="fj3UINoSOP0BKlGeXnyi-4" value="Request order status (order ID)" style="verticalAlign=bottom;edgeStyle=elbowEdgeStyle;elbow=vertical;curved=0;rounded=0;endArrow=block;" edge="1" parent="1" source="fj3UINoSOP0BKlGeXnyi-8" target="fj3UINoSOP0BKlGeXnyi-2">
          <mxGeometry relative="1" as="geometry">
            <Array as="points">
              <mxPoint x="362" y="127" />
            </Array>
          </mxGeometry>
        </mxCell>
        <mxCell id="fj3UINoSOP0BKlGeXnyi-5" value="Fetch order status by order ID" style="verticalAlign=bottom;edgeStyle=elbowEdgeStyle;elbow=vertical;curved=0;rounded=0;endArrow=block;" edge="1" parent="1" source="fj3UINoSOP0BKlGeXnyi-2" target="fj3UINoSOP0BKlGeXnyi-3">
          <mxGeometry relative="1" as="geometry">
            <Array as="points">
              <mxPoint x="684" y="179" />
            </Array>
          </mxGeometry>
        </mxCell>
        <mxCell id="fj3UINoSOP0BKlGeXnyi-6" value="Return order status" style="verticalAlign=bottom;edgeStyle=elbowEdgeStyle;elbow=vertical;curved=0;rounded=0;dashed=1;dashPattern=2 3;endArrow=block;" edge="1" parent="1" source="fj3UINoSOP0BKlGeXnyi-15" target="fj3UINoSOP0BKlGeXnyi-2">
          <mxGeometry relative="1" as="geometry">
            <Array as="points" />
          </mxGeometry>
        </mxCell>
        <mxCell id="fj3UINoSOP0BKlGeXnyi-7" value="Show current order status (Pending, Out for delivery, Delivered)" style="verticalAlign=bottom;edgeStyle=elbowEdgeStyle;elbow=vertical;curved=0;rounded=0;dashed=1;dashPattern=2 3;endArrow=block;" edge="1" parent="1" source="fj3UINoSOP0BKlGeXnyi-2" target="fj3UINoSOP0BKlGeXnyi-1">
          <mxGeometry relative="1" as="geometry">
            <Array as="points">
              <mxPoint x="365" y="283" />
            </Array>
          </mxGeometry>
        </mxCell>
        <mxCell id="fj3UINoSOP0BKlGeXnyi-9" value="" style="verticalAlign=bottom;edgeStyle=elbowEdgeStyle;elbow=vertical;curved=0;rounded=0;endArrow=block;" edge="1" parent="1" source="fj3UINoSOP0BKlGeXnyi-1" target="fj3UINoSOP0BKlGeXnyi-8">
          <mxGeometry relative="1" as="geometry">
            <Array as="points" />
            <mxPoint x="94" y="127" as="sourcePoint" />
            <mxPoint x="534" y="127" as="targetPoint" />
          </mxGeometry>
        </mxCell>
        <mxCell id="fj3UINoSOP0BKlGeXnyi-8" value="" style="rounded=0;whiteSpace=wrap;html=1;" vertex="1" parent="1">
          <mxGeometry x="80" y="100" width="20" height="50" as="geometry" />
        </mxCell>
        <mxCell id="fj3UINoSOP0BKlGeXnyi-10" value="" style="rounded=0;whiteSpace=wrap;html=1;" vertex="1" parent="1">
          <mxGeometry x="80" y="260" width="20" height="50" as="geometry" />
        </mxCell>
        <mxCell id="fj3UINoSOP0BKlGeXnyi-12" value="" style="rounded=0;whiteSpace=wrap;html=1;" vertex="1" parent="1">
          <mxGeometry x="525" y="160" width="20" height="50" as="geometry" />
        </mxCell>
        <mxCell id="fj3UINoSOP0BKlGeXnyi-13" value="" style="rounded=0;whiteSpace=wrap;html=1;" vertex="1" parent="1">
          <mxGeometry x="810" y="150" width="20" height="50" as="geometry" />
        </mxCell>
        <mxCell id="fj3UINoSOP0BKlGeXnyi-14" value="" style="rounded=0;whiteSpace=wrap;html=1;" vertex="1" parent="1">
          <mxGeometry x="520" y="210" width="20" height="90" as="geometry" />
        </mxCell>
        <mxCell id="fj3UINoSOP0BKlGeXnyi-16" value="" style="verticalAlign=bottom;edgeStyle=elbowEdgeStyle;elbow=vertical;curved=0;rounded=0;dashed=1;dashPattern=2 3;endArrow=block;" edge="1" parent="1" source="fj3UINoSOP0BKlGeXnyi-3" target="fj3UINoSOP0BKlGeXnyi-15">
          <mxGeometry relative="1" as="geometry">
            <Array as="points">
              <mxPoint x="687" y="231" />
            </Array>
            <mxPoint x="815" y="231" as="sourcePoint" />
            <mxPoint x="534" y="231" as="targetPoint" />
          </mxGeometry>
        </mxCell>
        <mxCell id="fj3UINoSOP0BKlGeXnyi-15" value="" style="rounded=0;whiteSpace=wrap;html=1;" vertex="1" parent="1">
          <mxGeometry x="810" y="210" width="20" height="50" as="geometry" />
        </mxCell>
        <mxCell id="fj3UINoSOP0BKlGeXnyi-17" value="" style="rounded=0;whiteSpace=wrap;html=1;" vertex="1" parent="1">
          <mxGeometry x="530" y="100" width="20" height="50" as="geometry" />
        </mxCell>
      </root>
    </mxGraphModel>
  </diagram>
</mxfile>
